<svg width="39" height="39" viewBox="0 0 39 39" fill="none" xmlns="http://www.w3.org/2000/svg">
<rect width="39" height="39" rx="19.5" fill="#5F6AC4"/>
<path fill-rule="evenodd" clip-rule="evenodd" d="M18.4 12.6C15.749 12.6 13.6 14.749 13.6 17.4C13.6 20.051 15.749 22.2 18.4 22.2C21.051 22.2 23.2 20.051 23.2 17.4C23.2 14.749 21.051 12.6 18.4 12.6ZM12 17.4C12 13.8654 14.8654 11 18.4 11C21.9346 11 24.8 13.8654 24.8 17.4C24.8 20.9346 21.9346 23.8 18.4 23.8C14.8654 23.8 12 20.9346 12 17.4Z" fill="white"/>
<path fill-rule="evenodd" clip-rule="evenodd" d="M21.8343 20.8343C22.1467 20.5219 22.6533 20.5219 22.9657 20.8343L27.7657 25.6343C28.0781 25.9467 28.0781 26.4533 27.7657 26.7657C27.4533 27.0781 26.9467 27.0781 26.6343 26.7657L21.8343 21.9657C21.5219 21.6533 21.5219 21.1467 21.8343 20.8343Z" fill="white"/>
</svg>
